# xmcd
#
# Track frame offsets:
#	150
#	19050
#	36978
#	59837
#	75281
#	94936
#	115065
#	135305
#	155740
#	182082
#	202657
#	226524
#	248826
#	279236
#	302051
#	328671
#
# Disc length: 4678
#
# Revision: 2
# Processed by: cddbd v1.5.1PL0 Copyright (c) Steve Scherf et al.
# Submitted via: CDmax 2.0
# Normalized: r1:TDELIM( - )
#
DISCID=c9124410
DTITLE=(Various Artists) - Radio Music
DYEAR=2004
DGENRE=R and B
TTITLE0=You're the Man - Barbara Lynn - Not Night Tonight
TTITLE1=Can I change my Mind - Barbara Lynn - So Good
TTITLE2=So Good - Barbara Lynn - So Good
TTITLE3=You brought out the woman out of me - Freda Payne - Lost in Love
TTITLE4=The Real Thing - Lisa Stansfield - Lisa Stansfield
TTITLE5=The Line - Lisa Stansfield - Lisa Stansfield
TTITLE6=All around the world - Lisa Stansfield - Affection
TTITLE7=This is the right time - Lisa Stansfield - Affection
TTITLE8=Affection - Lisa Stansfield - Affection
TTITLE9=You can't deny it - Lisa Stansfield - Affection
TTITLE10=All Woman - Lisa Stansfield - Real Love
TTITLE11=Every breath you take - Betty Wright - Reggatta Mondatta
TTITLE12=To love somebody - Roberta Flack - Quiet Fire
TTITLE13=I feel good all over - Stephanie Mills - If I were your woman
TTITLE14=You're putting a rush on me - Stephanie Mills - If I were your woman
TTITLE15=Feel the fire - Stephanie Mills - Love Soul Classics
EXTD=
EXTT0=
EXTT1=
EXTT2=
EXTT3=
EXTT4=
EXTT5=
EXTT6=
EXTT7=
EXTT8=
EXTT9=
EXTT10=
EXTT11=
EXTT12=
EXTT13=
EXTT14=
EXTT15=
PLAYORDER=
